<?xml version="1.0" encoding="utf-8"?>
<!-- Generator: Adobe Illustrator 28.0.0, SVG Export Plug-In . SVG Version: 6.00 Build 0)  -->
<svg version="1.1" id="Layer_1" xmlns="http://www.w3.org/2000/svg" xmlns:xlink="http://www.w3.org/1999/xlink" x="0px" y="0px"
	 viewBox="0 0 288 115.7" style="enable-background:new 0 0 288 115.7;" xml:space="preserve">
<g id="Layer_2_00000165942799992790819620000016374802568788362675_">
	<g id="Logo_Art">
		<polygon points="16.1,55.7 0,83.5 32.1,83.5 48.2,55.7 		"/>
		<polygon points="64.3,83.5 96.4,83.5 80.3,55.7 48.2,55.7 		"/>
		<polygon points="48.2,0 32.1,27.8 48.2,55.7 64.3,27.8 		"/>
		<polygon points="110.8,71.7 123.7,71.7 123.7,67 110.8,67 110.8,61.3 125.3,61.3 125.3,56.6 110.8,56.6 105.4,56.6 105.4,61.3 
			105.4,78.9 105.4,83.5 110.8,83.5 125.7,83.5 125.7,78.9 110.8,78.9 		"/>
		<polygon points="110.4,32.1 116.2,52.1 116.4,52.1 121.2,52.1 121.4,52.1 127.1,32.1 127.1,52.1 132.2,52.1 132.2,25.2 
			129.4,25.2 127,25.2 124.4,25.2 118.8,44.1 113.2,25.2 110.5,25.2 108.1,25.2 105.4,25.2 105.4,52.1 110.4,52.1 		"/>
		<rect x="228.9" y="25.2" width="5.4" height="26.9"/>
		<rect x="233.4" y="56.6" width="5.4" height="26.9"/>
		<rect x="282.6" y="25.2" width="5.4" height="26.9"/>
		<rect x="134.4" y="25.2" width="5.4" height="26.9"/>
		<polygon points="275,35.7 264.2,35.7 264.2,25.2 258.9,25.2 258.9,52.1 264.2,52.1 264.2,40.4 275,40.4 275,52.1 280.3,52.1 
			280.3,25.2 275,25.2 		"/>
		<polygon points="147.8,52.1 153.3,52.1 153.3,29.9 159.9,29.9 159.9,25.2 153.3,25.2 147.8,25.2 141.2,25.2 141.2,29.9 
			147.8,29.9 		"/>
		<polygon points="197.3,83.5 202.8,83.5 202.8,61.3 209.4,61.3 209.4,56.6 202.8,56.6 197.3,56.6 190.7,56.6 190.7,61.3 
			197.3,61.3 		"/>
		<path d="M193.6,52.9c6.9,0,10.7-3.2,10.7-9.2V25.2h-5.4v19c0,2.3-1.9,4.2-5.3,4.2c-4.1,0-5.3-2.3-5.3-4.2v-19H183v18.5
			C183,50.2,187,52.9,193.6,52.9"/>
		<polygon points="152.6,71.7 165.4,71.7 165.4,67 152.6,67 152.6,61.3 167.1,61.3 167.1,56.6 152.6,56.6 147.1,56.6 147.1,61.3 
			147.1,78.9 147.1,83.5 152.6,83.5 167.4,83.5 167.4,78.9 152.6,78.9 		"/>
		<path d="M218.4,29.5c1.7,0.1,3.1,1.5,3.1,3.2c0,1.8-1.4,3.4-3.3,3.4c-0.1,0-0.1,0-0.2,0h-6.5v-6.6
			C211.5,29.5,218.4,29.5,218.4,29.5z M218,48.1h-6.4v-7.8h6.3c2.3,0,4.2,1.3,4.2,3.9c0,2.2-1.8,3.9-3.9,3.9
			C218.1,48.1,218.1,48.1,218,48.1 M211.9,52.1h7.8c5.1,0,8.1-3,8.1-7.3c0-3.2-2.1-6-5.2-7c2.6-0.8,4.4-3.3,4.3-6
			c0-4-2.9-6.6-8.4-6.6h-12.2v26.9H211.9L211.9,52.1z"/>
		<path d="M216.2,68.6v-7.3h6.6c1.9-0.1,3.6,1.4,3.7,3.4c0,0.1,0,0.2,0,0.3c0,2-1.6,3.5-3.5,3.7L216.2,68.6L216.2,68.6z M227,70.6
			c2.9-0.8,4.9-3.5,4.8-6.5c0-4.8-3.2-7.5-8.8-7.5h-12.3v27h5.4V72.9h4.6c2.8,0,4.3,1.4,4.8,3.4c0.5,2.1,0.4,5.3,0.9,7.2h5.5
			c-0.5-2.3-0.9-4.7-1-7.1C230.8,72.8,228.9,71.3,227,70.6"/>
		<polygon points="132.9,56.6 127.4,56.6 127.4,78.9 127.4,83.5 132.9,83.5 145.6,83.5 145.6,78.9 132.9,78.9 		"/>
		<path d="M169,40.8c4.4,0.8,6.9,1.6,6.9,4.2c0,1.8-1.8,3.4-5.4,3.4s-5.5-2.1-5.5-4.5h-5.2c0,4.7,3,9,11,9c7.5,0,10.8-4,10.8-8.5
			c0-4.2-2.8-6.9-7.8-7.9c-4.8-0.9-8.1-1.1-8.1-4.2c0-2.1,1.9-3.3,4.8-3.3c3.1,0,4.9,1.5,4.9,4.1h5.3c0-4.2-3.2-8.6-10.4-8.6
			c-4.9,0-10.1,2.9-10.1,8.2C160.3,37.1,163.6,39.8,169,40.8"/>
		<path d="M244.9,40.8c4.4,0.8,6.9,1.6,6.9,4.2c0,1.8-1.8,3.4-5.4,3.4s-5.5-2.1-5.5-4.5h-5.2c0,4.7,3,9,10.9,9
			c7.5,0,10.8-4,10.8-8.5c0-4.2-2.8-6.9-7.8-7.9c-4.8-0.9-8-1.1-8-4.2c0-2.1,1.9-3.3,4.8-3.3c3.1,0,4.9,1.5,4.9,4.1h5.3
			c0-4.2-3.2-8.6-10.4-8.6c-4.9,0-10.1,2.9-10.1,8.2C236.2,37.1,239.5,39.8,244.9,40.8"/>
		<path d="M179.7,79.4c-4.4,0-7-4.3-7-9.4s2.5-9.4,7-9.4c3.3,0,5,2.1,5.8,4.6h5.6c-0.9-5.3-5-9.2-11.6-9.2
			c-8.2,0-12.4,6.3-12.4,14.1s4.3,14.1,12.4,14.1c6.5,0,10.8-3.8,11.6-9.5h-5.7C184.8,77.3,183,79.4,179.7,79.4"/>
		<path d="M252.7,79.4c-4.4,0-6.9-4.3-6.9-9.4s2.5-9.4,6.9-9.4c3.3,0,5,2.1,5.8,4.6h5.6c-0.9-5.3-5-9.2-11.6-9.2
			c-8.2,0-12.4,6.3-12.4,14.1s4.3,14.1,12.4,14.1c6.5,0,10.8-3.8,11.6-9.5h-5.7C257.7,77.3,255.9,79.4,252.7,79.4"/>
		<polygon points="7.2,104.6 7.2,109.1 1.9,109.1 1.9,104.6 0,104.6 0,115.5 1.9,115.5 1.9,110.9 7.2,110.9 7.2,115.5 9.1,115.5 
			9.1,104.6 		"/>
		<polygon points="13.5,104.6 13.5,115.5 21.7,115.5 21.7,113.8 15.4,113.8 15.4,110.9 20.9,110.9 20.9,109.1 15.4,109.1 
			15.4,106.3 21.6,106.3 21.6,104.6 		"/>
		<path d="M30.3,106.8l1.9,4.4h-3.8L30.3,106.8z M29.4,104.5l-4.8,11h2l1.1-2.7h5.2l1.1,2.7h2l-4.8-11H29.4z"/>
		<polygon points="37.3,104.6 37.3,106.3 40.8,106.3 40.8,115.5 42.7,115.5 42.7,106.3 46.2,106.3 46.2,104.6 		"/>
		<rect x="49.9" y="104.6" width="1.9" height="11"/>
		<polygon points="64,104.6 64,112.1 58.1,104.6 56.3,104.6 56.3,115.5 58.2,115.5 58.2,107.7 64.2,115.5 65.8,115.5 65.8,104.6 		
			"/>
		<path d="M69.7,110.1L69.7,110.1c0-3.1,2.4-5.6,5.5-5.7c0.1,0,0.1,0,0.2,0c1.5-0.1,3.1,0.5,4.2,1.5l-1.2,1.5
			c-0.8-0.8-1.9-1.2-3.1-1.2c-2,0.1-3.6,1.8-3.5,3.8l0,0c-0.2,2,1.3,3.8,3.3,4c0.1,0,0.3,0,0.4,0c0.9,0,1.9-0.3,2.7-0.8v-2h-2.8
			v-1.7H80v4.5c-1.3,1.1-2.9,1.7-4.6,1.7c-3,0.1-5.5-2.2-5.7-5.2C69.7,110.4,69.7,110.2,69.7,110.1"/>
		<path d="M95.3,107.2L95.3,107.2c0-0.7-0.5-1.2-1.1-1.2h-0.1c-0.7,0-1.3,0.5-1.3,1.2v0.1l0,0c0,0.6,0.3,1.2,0.8,1.6
			C94.7,108.4,95.3,107.9,95.3,107.2 M95.4,113.2l-2.4-2.5c-0.8,0.2-1.4,1-1.5,1.8l0,0c0,0.9,0.8,1.6,1.7,1.6h0.1
			C94.2,114,94.9,113.7,95.4,113.2 M96.5,114.2c-0.9,0.9-2.1,1.4-3.4,1.4c-2,0-3.6-1.2-3.6-3.1l0,0c0-1.4,1-2.7,2.3-3.1
			c-0.6-0.6-0.9-1.4-0.9-2.3l0,0c0.1-1.6,1.4-2.8,3-2.8c0.1,0,0.1,0,0.2,0c1.5-0.1,2.8,1.1,2.8,2.6l0,0l0,0c0,1.4-1,2.3-2.4,2.8
			l1.9,1.9c0.4-0.7,0.8-1.4,1.2-2.1l1.4,0.8c-0.4,0.9-0.9,1.8-1.4,2.6l1.7,1.8l-1.4,1L96.5,114.2z"/>
		<path d="M113.8,106.8l1.9,4.4H112L113.8,106.8z M113,104.5l-4.8,11h2l1.1-2.7h5.2l1.1,2.7h2l-4.8-11H113z"/>
		<rect x="123.1" y="104.6" width="1.9" height="11"/>
		<path d="M134.3,110c1.4,0,2.3-0.7,2.3-1.8l0,0c0-1.2-0.9-1.8-2.3-1.8h-2.8v3.7L134.3,110L134.3,110z M129.6,104.6h4.9
			c1.2-0.1,2.3,0.3,3.2,1.1c0.6,0.6,0.9,1.5,0.9,2.4l0,0c0,1.6-1,3-2.6,3.3l3,4.2h-2.3l-2.7-3.8h-2.4v3.8h-1.9L129.6,104.6z"/>
		<path d="M148.2,110.1L148.2,110.1c-0.1-3.1,2.3-5.6,5.4-5.7c0.1,0,0.2,0,0.2,0c1.6-0.1,3.2,0.6,4.3,1.7l-1.2,1.4
			c-0.8-0.8-1.9-1.3-3.1-1.3c-2,0-3.6,1.7-3.6,3.7v0.1l0,0c-0.1,2,1.5,3.8,3.5,3.9h0.1c1.2,0,2.3-0.5,3.1-1.4l1.2,1.2
			c-1.1,1.3-2.8,2-4.4,1.9c-3,0-5.5-2.4-5.6-5.4C148.2,110.2,148.2,110.1,148.2,110.1"/>
		<path d="M170.5,110.1L170.5,110.1c0.1-2.1-1.5-3.8-3.6-3.9h-0.1c-2,0-3.7,1.6-3.7,3.7c0,0.1,0,0.1,0,0.2l0,0
			c-0.1,2.1,1.5,3.8,3.6,3.9h0.1c2,0,3.7-1.7,3.7-3.7C170.5,110.2,170.5,110.1,170.5,110.1 M161.1,110.1L161.1,110.1
			c0.1-3.2,2.8-5.6,6-5.5c3,0.1,5.4,2.5,5.5,5.5l0,0c-0.1,3.2-2.8,5.6-6,5.5C163.6,115.4,161.2,113,161.1,110.1"/>
		<polygon points="184.1,104.6 184.1,112.1 178.2,104.6 176.4,104.6 176.4,115.5 178.3,115.5 178.3,107.7 184.4,115.5 186,115.5 
			186,104.6 		"/>
		<path d="M192.3,106.3v7.5h2.2c2,0.1,3.7-1.4,3.8-3.3c0-0.1,0-0.2,0-0.4l0,0c0.1-2-1.5-3.7-3.5-3.7c-0.1,0-0.2,0-0.3,0L192.3,106.3
			z M190.4,104.6h4.1c3.4,0,5.8,2.4,5.8,5.4l0,0c0,3-2.4,5.5-5.5,5.5c-0.1,0-0.2,0-0.4,0h-4.1L190.4,104.6L190.4,104.6z"/>
		<rect x="204.3" y="104.6" width="1.9" height="11"/>
		<polygon points="209.9,104.6 209.9,106.3 213.4,106.3 213.4,115.5 215.3,115.5 215.3,106.3 218.8,106.3 218.8,104.6 		"/>
		<rect x="222.5" y="104.6" width="1.9" height="11"/>
		<path d="M237.9,110.1L237.9,110.1c0.1-2.1-1.5-3.8-3.6-3.9h-0.1c-2,0-3.7,1.6-3.7,3.7c0,0.1,0,0.1,0,0.2l0,0
			c-0.1,2.1,1.5,3.8,3.6,3.9h0.1c2,0,3.7-1.7,3.7-3.7C237.9,110.2,237.9,110.1,237.9,110.1 M228.4,110.1L228.4,110.1
			c0.1-3.2,2.8-5.6,6-5.5c3,0.1,5.4,2.5,5.5,5.5l0,0c0,3.1-2.5,5.6-5.6,5.7c-0.1,0-0.1,0-0.2,0c-3.1,0.1-5.6-2.3-5.7-5.4
			C228.4,110.2,228.4,110.2,228.4,110.1"/>
		<polygon points="251.5,104.6 251.5,112.1 245.6,104.6 243.8,104.6 243.8,115.5 245.7,115.5 245.7,107.7 251.8,115.5 253.4,115.5 
			253.4,104.6 		"/>
		<rect x="257.9" y="104.6" width="1.9" height="11"/>
		<polygon points="271.9,104.6 271.9,112.1 266.1,104.6 264.3,104.6 264.3,115.5 266.2,115.5 266.2,107.7 272.2,115.5 273.8,115.5 
			273.8,104.6 		"/>
		<path d="M277.7,110.1L277.7,110.1c0-3.1,2.4-5.6,5.5-5.7h0.1c1.5-0.1,3.1,0.5,4.2,1.5l-1.2,1.5c-0.8-0.8-1.9-1.2-3.1-1.2
			c-2,0.1-3.6,1.8-3.6,3.8l0,0l0,0c-0.1,2,1.4,3.8,3.4,3.9c0.1,0,0.2,0,0.3,0c0.9,0,1.9-0.3,2.6-0.8v-2h-2.8v-1.7h4.7v4.6
			c-1.3,1.1-2.9,1.7-4.6,1.7c-3,0.1-5.5-2.2-5.7-5.2C277.7,110.4,277.7,110.2,277.7,110.1"/>
	</g>
</g>
</svg>
