<svg xmlns:xlink="http://www.w3.org/1999/xlink" xmlns="http://www.w3.org/2000/svg" viewBox="55.19999999999999 84.9 265.5 199.8" preserveAspectRatio="xMidYMid meet" zoomAndPan="magnify" style="max-height: 500px" width="265.5" height="199.8"><defs><g></g><clipPath id="db78a09bfb"><path clip-rule="nonzero" d="M 135.34375 88.988281 L 239.59375 88.988281 L 239.59375 205.941406 L 135.34375 205.941406 Z M 135.34375 88.988281"></path></clipPath><clipPath id="57fe9a745d"><path clip-rule="nonzero" d="M 169.101562 156.632812 L 205.898438 156.632812 L 205.898438 187.5 L 169.101562 187.5 Z M 169.101562 156.632812"></path></clipPath><clipPath id="f97d144fb4"><path clip-rule="nonzero" d="M 182 150.773438 L 249.023438 150.773438 L 249.023438 164 L 182 164 Z M 182 150.773438"></path></clipPath><clipPath id="4b65361133"><path clip-rule="nonzero" d="M 180.023438 171 L 248 171 L 248 185 L 180.023438 185 Z M 180.023438 171"></path></clipPath></defs><rect fill-opacity="1" height="449.999989" y="-37.499999" fill="#ffffff" width="450" x="-37.5"></rect><rect fill-opacity="1" height="449.999989" y="-37.499999" fill="#000000" width="450" x="-37.5"></rect><g clip-path="url(#db78a09bfb)"><path fill-rule="nonzero" fill-opacity="1" d="M 198.597656 170.941406 L 189.25 170.941406 L 189.25 180.453125 L 198.597656 180.453125 Z M 142.027344 88.996094 L 195.933594 88.996094 C 207.941406 88.996094 218.808594 93.996094 226.800781 101.847656 C 234.652344 109.863281 239.652344 120.703125 239.652344 132.714844 C 239.652344 138.554688 238.320312 144.234375 236.308594 149.398438 C 235.820312 150.402344 235.304688 151.40625 234.816406 152.410156 L 224.464844 142.222656 C 225.46875 139.210938 226.121094 136.054688 226.121094 132.714844 C 226.121094 124.371094 222.617188 116.847656 217.265625 111.355469 C 211.753906 106.007812 204.25 102.5 195.910156 102.5 L 148.871094 102.5 L 148.871094 143.71875 L 135.34375 157.25 L 135.34375 88.996094 Z M 148.871094 153.253906 L 187.425781 114.699219 L 192.265625 119.371094 L 221.472656 148.742188 L 231.144531 158.417969 L 239.652344 166.757812 L 239.652344 205.828125 L 162.214844 205.828125 L 162.214844 192.300781 L 226.144531 192.300781 L 226.144531 172.4375 L 221.964844 168.253906 L 187.425781 133.71875 L 148.871094 172.4375 L 148.871094 205.828125 L 135.34375 205.828125 L 135.34375 166.78125 Z M 185.746094 158.417969 L 176.234375 158.417969 L 176.234375 167.925781 L 185.746094 167.925781 Z M 198.597656 158.417969 L 189.25 158.417969 L 189.25 167.925781 L 198.597656 167.925781 Z M 185.746094 170.941406 L 176.234375 170.941406 L 176.234375 180.453125 L 185.746094 180.453125 Z M 185.746094 170.941406" fill="#ffffff"></path></g><g clip-path="url(#57fe9a745d)"><path fill-rule="nonzero" fill-opacity="1" d="M 169.101562 156.632812 L 205.878906 156.632812 L 205.878906 187.5 L 169.101562 187.5 Z M 169.101562 156.632812" fill="#000000"></path></g><g fill-opacity="1" fill="#ffffff"><g transform="translate(59.7946, 249.840276)"><g><path d="M 4.703125 -7.234375 L 4.703125 -10.03125 L 10.171875 -10.03125 C 10.640625 -10.03125 11.179688 -10.046875 11.796875 -10.078125 C 12.421875 -10.109375 13.046875 -10.207031 13.671875 -10.375 C 14.304688 -10.539062 14.894531 -10.820312 15.4375 -11.21875 C 15.988281 -11.613281 16.429688 -12.15625 16.765625 -12.84375 C 17.097656 -13.53125 17.265625 -14.421875 17.265625 -15.515625 C 17.265625 -16.566406 17.097656 -17.421875 16.765625 -18.078125 C 16.429688 -18.742188 16.003906 -19.265625 15.484375 -19.640625 C 14.960938 -20.023438 14.394531 -20.296875 13.78125 -20.453125 C 13.175781 -20.609375 12.613281 -20.703125 12.09375 -20.734375 C 11.570312 -20.773438 11.144531 -20.796875 10.8125 -20.796875 L 4.703125 -20.796875 L 4.703125 -23.546875 L 11.125 -23.546875 C 12.507812 -23.546875 13.773438 -23.382812 14.921875 -23.0625 C 16.078125 -22.738281 17.078125 -22.238281 17.921875 -21.5625 C 18.765625 -20.882812 19.425781 -20.035156 19.90625 -19.015625 C 20.382812 -17.992188 20.625 -16.789062 20.625 -15.40625 C 20.625 -13.675781 20.222656 -12.203125 19.421875 -10.984375 C 18.628906 -9.773438 17.441406 -8.847656 15.859375 -8.203125 C 14.273438 -7.554688 12.28125 -7.234375 9.875 -7.234375 Z M 2.953125 0 L 2.953125 -23.546875 L 6.25 -23.546875 L 6.25 0 Z M 2.953125 0"></path></g></g></g><g fill-opacity="1" fill="#ffffff"><g transform="translate(88.904594, 249.840276)"><g><path d="M 12.59375 0.46875 C 11.332031 0.46875 10.179688 0.328125 9.140625 0.046875 C 8.109375 -0.222656 7.191406 -0.625 6.390625 -1.15625 C 5.597656 -1.695312 4.9375 -2.347656 4.40625 -3.109375 C 3.875 -3.867188 3.472656 -4.734375 3.203125 -5.703125 C 2.941406 -6.679688 2.8125 -7.765625 2.8125 -8.953125 L 2.8125 -23.546875 L 6.09375 -23.546875 L 6.09375 -9.09375 C 6.09375 -7.832031 6.300781 -6.707031 6.71875 -5.71875 C 7.132812 -4.738281 7.816406 -3.960938 8.765625 -3.390625 C 9.722656 -2.816406 11 -2.53125 12.59375 -2.53125 C 14.226562 -2.53125 15.515625 -2.816406 16.453125 -3.390625 C 17.398438 -3.960938 18.070312 -4.742188 18.46875 -5.734375 C 18.875 -6.734375 19.078125 -7.851562 19.078125 -9.09375 L 19.078125 -23.546875 L 22.359375 -23.546875 L 22.359375 -8.953125 C 22.359375 -7.410156 22.140625 -6.054688 21.703125 -4.890625 C 21.265625 -3.722656 20.628906 -2.738281 19.796875 -1.9375 C 18.960938 -1.144531 17.9375 -0.546875 16.71875 -0.140625 C 15.507812 0.265625 14.132812 0.46875 12.59375 0.46875 Z M 12.59375 0.46875"></path></g></g></g><g fill-opacity="1" fill="#ffffff"><g transform="translate(121.225056, 249.840276)"><g><path d="M 2.953125 0 L 2.953125 -23.546875 L 11.171875 -23.546875 C 12.304688 -23.546875 13.359375 -23.445312 14.328125 -23.25 C 15.304688 -23.0625 16.179688 -22.789062 16.953125 -22.4375 C 17.734375 -22.082031 18.394531 -21.625 18.9375 -21.0625 C 19.488281 -20.5 19.90625 -19.851562 20.1875 -19.125 C 20.476562 -18.40625 20.625 -17.582031 20.625 -16.65625 C 20.625 -15.851562 20.5 -15.101562 20.25 -14.40625 C 20 -13.71875 19.628906 -13.113281 19.140625 -12.59375 C 18.648438 -12.070312 18.03125 -11.644531 17.28125 -11.3125 C 16.53125 -10.976562 15.65625 -10.75 14.65625 -10.625 L 14.65625 -10.203125 C 15.488281 -10.085938 16.226562 -9.863281 16.875 -9.53125 C 17.519531 -9.195312 18.082031 -8.695312 18.5625 -8.03125 C 19.050781 -7.363281 19.460938 -6.457031 19.796875 -5.3125 L 21.296875 0 L 17.765625 0 L 16.546875 -4.75 C 16.304688 -5.769531 15.921875 -6.582031 15.390625 -7.1875 C 14.859375 -7.789062 14.226562 -8.226562 13.5 -8.5 C 12.769531 -8.78125 11.96875 -8.921875 11.09375 -8.921875 L 6.25 -8.921875 L 6.25 0 Z M 6.25 -11.59375 L 10.171875 -11.59375 C 10.640625 -11.59375 11.179688 -11.609375 11.796875 -11.640625 C 12.421875 -11.679688 13.050781 -11.765625 13.6875 -11.890625 C 14.332031 -12.023438 14.921875 -12.257812 15.453125 -12.59375 C 15.992188 -12.925781 16.429688 -13.382812 16.765625 -13.96875 C 17.097656 -14.550781 17.265625 -15.289062 17.265625 -16.1875 C 17.265625 -17.125 17.097656 -17.878906 16.765625 -18.453125 C 16.429688 -19.035156 16.003906 -19.488281 15.484375 -19.8125 C 14.960938 -20.132812 14.398438 -20.363281 13.796875 -20.5 C 13.203125 -20.644531 12.640625 -20.734375 12.109375 -20.765625 C 11.578125 -20.804688 11.117188 -20.828125 10.734375 -20.828125 L 6.25 -20.828125 Z M 6.25 -11.59375"></path></g></g></g><g fill-opacity="1" fill="#ffffff"><g transform="translate(151.36953, 249.840276)"><g><path d="M 2.953125 0 L 2.953125 -23.546875 L 6.25 -23.546875 L 6.25 0 Z M 4.640625 0 L 4.640625 -2.8125 L 19.4375 -2.8125 L 19.4375 0 Z M 4.640625 -10.703125 L 4.640625 -13.34375 L 17.765625 -13.34375 L 17.765625 -10.703125 Z M 4.640625 -20.71875 L 4.640625 -23.546875 L 19.40625 -23.546875 L 19.40625 -20.71875 Z M 4.640625 -20.71875"></path></g></g></g><g fill-opacity="1" fill="#ffffff"><g transform="translate(179.302336, 249.840276)"><g><path d="M 1.171875 0 L 8.953125 -11.765625 L 1.109375 -23.546875 L 5 -23.546875 L 10.984375 -13.765625 L 11.171875 -13.765625 L 17.1875 -23.546875 L 21.078125 -23.546875 L 13.234375 -11.8125 L 21.21875 0 L 17.375 0 L 11.171875 -9.875 L 10.984375 -9.875 L 5.03125 0 Z M 1.171875 0"></path></g></g></g><g fill-opacity="1" fill="#ffffff"><g transform="translate(208.733369, 249.840276)"><g><path d="M 4.703125 -7.234375 L 4.703125 -10.03125 L 10.171875 -10.03125 C 10.640625 -10.03125 11.179688 -10.046875 11.796875 -10.078125 C 12.421875 -10.109375 13.046875 -10.207031 13.671875 -10.375 C 14.304688 -10.539062 14.894531 -10.820312 15.4375 -11.21875 C 15.988281 -11.613281 16.429688 -12.15625 16.765625 -12.84375 C 17.097656 -13.53125 17.265625 -14.421875 17.265625 -15.515625 C 17.265625 -16.566406 17.097656 -17.421875 16.765625 -18.078125 C 16.429688 -18.742188 16.003906 -19.265625 15.484375 -19.640625 C 14.960938 -20.023438 14.394531 -20.296875 13.78125 -20.453125 C 13.175781 -20.609375 12.613281 -20.703125 12.09375 -20.734375 C 11.570312 -20.773438 11.144531 -20.796875 10.8125 -20.796875 L 4.703125 -20.796875 L 4.703125 -23.546875 L 11.125 -23.546875 C 12.507812 -23.546875 13.773438 -23.382812 14.921875 -23.0625 C 16.078125 -22.738281 17.078125 -22.238281 17.921875 -21.5625 C 18.765625 -20.882812 19.425781 -20.035156 19.90625 -19.015625 C 20.382812 -17.992188 20.625 -16.789062 20.625 -15.40625 C 20.625 -13.675781 20.222656 -12.203125 19.421875 -10.984375 C 18.628906 -9.773438 17.441406 -8.847656 15.859375 -8.203125 C 14.273438 -7.554688 12.28125 -7.234375 9.875 -7.234375 Z M 2.953125 0 L 2.953125 -23.546875 L 6.25 -23.546875 L 6.25 0 Z M 2.953125 0"></path></g></g></g><g fill-opacity="1" fill="#ffffff"><g transform="translate(237.84336, 249.840276)"><g><path d="M 2.953125 0 L 2.953125 -23.546875 L 6.25 -23.546875 L 6.25 0 Z M 4.640625 0 L 4.640625 -2.8125 L 19.4375 -2.8125 L 19.4375 0 Z M 4.640625 -10.703125 L 4.640625 -13.34375 L 17.765625 -13.34375 L 17.765625 -10.703125 Z M 4.640625 -20.71875 L 4.640625 -23.546875 L 19.40625 -23.546875 L 19.40625 -20.71875 Z M 4.640625 -20.71875"></path></g></g></g><g fill-opacity="1" fill="#ffffff"><g transform="translate(265.776177, 249.840276)"><g><path d="M 2.953125 0 L 2.953125 -23.546875 L 11.171875 -23.546875 C 12.304688 -23.546875 13.359375 -23.445312 14.328125 -23.25 C 15.304688 -23.0625 16.179688 -22.789062 16.953125 -22.4375 C 17.734375 -22.082031 18.394531 -21.625 18.9375 -21.0625 C 19.488281 -20.5 19.90625 -19.851562 20.1875 -19.125 C 20.476562 -18.40625 20.625 -17.582031 20.625 -16.65625 C 20.625 -15.851562 20.5 -15.101562 20.25 -14.40625 C 20 -13.71875 19.628906 -13.113281 19.140625 -12.59375 C 18.648438 -12.070312 18.03125 -11.644531 17.28125 -11.3125 C 16.53125 -10.976562 15.65625 -10.75 14.65625 -10.625 L 14.65625 -10.203125 C 15.488281 -10.085938 16.226562 -9.863281 16.875 -9.53125 C 17.519531 -9.195312 18.082031 -8.695312 18.5625 -8.03125 C 19.050781 -7.363281 19.460938 -6.457031 19.796875 -5.3125 L 21.296875 0 L 17.765625 0 L 16.546875 -4.75 C 16.304688 -5.769531 15.921875 -6.582031 15.390625 -7.1875 C 14.859375 -7.789062 14.226562 -8.226562 13.5 -8.5 C 12.769531 -8.78125 11.96875 -8.921875 11.09375 -8.921875 L 6.25 -8.921875 L 6.25 0 Z M 6.25 -11.59375 L 10.171875 -11.59375 C 10.640625 -11.59375 11.179688 -11.609375 11.796875 -11.640625 C 12.421875 -11.679688 13.050781 -11.765625 13.6875 -11.890625 C 14.332031 -12.023438 14.921875 -12.257812 15.453125 -12.59375 C 15.992188 -12.925781 16.429688 -13.382812 16.765625 -13.96875 C 17.097656 -14.550781 17.265625 -15.289062 17.265625 -16.1875 C 17.265625 -17.125 17.097656 -17.878906 16.765625 -18.453125 C 16.429688 -19.035156 16.003906 -19.488281 15.484375 -19.8125 C 14.960938 -20.132812 14.398438 -20.363281 13.796875 -20.5 C 13.203125 -20.644531 12.640625 -20.734375 12.109375 -20.765625 C 11.578125 -20.804688 11.117188 -20.828125 10.734375 -20.828125 L 6.25 -20.828125 Z M 6.25 -11.59375"></path></g></g></g><g fill-opacity="1" fill="#ffffff"><g transform="translate(295.920645, 249.840276)"><g><path d="M 7.984375 0 L 7.984375 -23.546875 L 11.265625 -23.546875 L 11.265625 0 Z M 0.859375 -20.6875 L 0.859375 -23.546875 L 18.40625 -23.546875 L 18.40625 -20.6875 Z M 0.859375 -20.6875"></path></g></g></g><g fill-opacity="1" fill="#ffffff"><g transform="translate(84.800119, 272.554141)"><g><path d="M 4.609375 0.1875 C 3.984375 0.1875 3.425781 0.117188 2.9375 -0.015625 C 2.445312 -0.148438 2.035156 -0.351562 1.703125 -0.625 C 1.378906 -0.894531 1.140625 -1.226562 0.984375 -1.625 C 0.828125 -2.019531 0.757812 -2.472656 0.78125 -2.984375 L 2 -3.25 C 1.957031 -2.726562 2.039062 -2.296875 2.25 -1.953125 C 2.457031 -1.609375 2.769531 -1.351562 3.1875 -1.1875 C 3.613281 -1.03125 4.109375 -0.953125 4.671875 -0.953125 C 5.203125 -0.953125 5.65625 -1.015625 6.03125 -1.140625 C 6.414062 -1.273438 6.703125 -1.460938 6.890625 -1.703125 C 7.085938 -1.941406 7.1875 -2.222656 7.1875 -2.546875 C 7.1875 -2.898438 7.070312 -3.179688 6.84375 -3.390625 C 6.613281 -3.597656 6.3125 -3.757812 5.9375 -3.875 C 5.5625 -3.988281 5.144531 -4.097656 4.6875 -4.203125 C 4.226562 -4.296875 3.78125 -4.398438 3.34375 -4.515625 C 2.90625 -4.640625 2.503906 -4.804688 2.140625 -5.015625 C 1.773438 -5.222656 1.484375 -5.488281 1.265625 -5.8125 C 1.054688 -6.144531 0.953125 -6.566406 0.953125 -7.078125 C 0.953125 -7.640625 1.09375 -8.128906 1.375 -8.546875 C 1.664062 -8.972656 2.070312 -9.300781 2.59375 -9.53125 C 3.125 -9.757812 3.742188 -9.875 4.453125 -9.875 C 5.160156 -9.875 5.789062 -9.757812 6.34375 -9.53125 C 6.894531 -9.3125 7.332031 -8.984375 7.65625 -8.546875 C 7.976562 -8.109375 8.144531 -7.566406 8.15625 -6.921875 L 6.890625 -6.625 C 6.890625 -6.976562 6.832031 -7.285156 6.71875 -7.546875 C 6.601562 -7.816406 6.4375 -8.039062 6.21875 -8.21875 C 6 -8.394531 5.738281 -8.523438 5.4375 -8.609375 C 5.144531 -8.703125 4.816406 -8.75 4.453125 -8.75 C 4.003906 -8.75 3.613281 -8.679688 3.28125 -8.546875 C 2.957031 -8.410156 2.703125 -8.222656 2.515625 -7.984375 C 2.335938 -7.753906 2.25 -7.476562 2.25 -7.15625 C 2.25 -6.78125 2.378906 -6.476562 2.640625 -6.25 C 2.898438 -6.03125 3.242188 -5.859375 3.671875 -5.734375 C 4.097656 -5.617188 4.554688 -5.503906 5.046875 -5.390625 C 5.460938 -5.296875 5.875 -5.1875 6.28125 -5.0625 C 6.6875 -4.945312 7.054688 -4.785156 7.390625 -4.578125 C 7.722656 -4.378906 7.988281 -4.117188 8.1875 -3.796875 C 8.394531 -3.472656 8.5 -3.0625 8.5 -2.5625 C 8.5 -2.007812 8.347656 -1.523438 8.046875 -1.109375 C 7.753906 -0.703125 7.320312 -0.382812 6.75 -0.15625 C 6.175781 0.0703125 5.460938 0.1875 4.609375 0.1875 Z M 4.609375 0.1875"></path></g></g></g><g fill-opacity="1" fill="#ffffff"><g transform="translate(96.979571, 272.554141)"><g><path d="M 1.21875 0 L 1.21875 -9.6875 L 2.5625 -9.6875 L 2.5625 0 Z M 1.90625 0 L 1.90625 -1.15625 L 8 -1.15625 L 8 0 Z M 1.90625 -4.40625 L 1.90625 -5.484375 L 7.3125 -5.484375 L 7.3125 -4.40625 Z M 1.90625 -8.53125 L 1.90625 -9.6875 L 7.984375 -9.6875 L 7.984375 -8.53125 Z M 1.90625 -8.53125"></path></g></g></g><g fill-opacity="1" fill="#ffffff"><g transform="translate(108.469437, 272.554141)"><g><path d="M 1.21875 0 L 1.21875 -9.6875 L 4.59375 -9.6875 C 5.0625 -9.6875 5.492188 -9.644531 5.890625 -9.5625 C 6.296875 -9.488281 6.65625 -9.378906 6.96875 -9.234375 C 7.289062 -9.085938 7.5625 -8.894531 7.78125 -8.65625 C 8.007812 -8.425781 8.179688 -8.160156 8.296875 -7.859375 C 8.421875 -7.566406 8.484375 -7.234375 8.484375 -6.859375 C 8.484375 -6.523438 8.429688 -6.210938 8.328125 -5.921875 C 8.222656 -5.640625 8.070312 -5.390625 7.875 -5.171875 C 7.675781 -4.960938 7.421875 -4.789062 7.109375 -4.65625 C 6.796875 -4.519531 6.4375 -4.425781 6.03125 -4.375 L 6.03125 -4.203125 C 6.375 -4.148438 6.675781 -4.054688 6.9375 -3.921875 C 7.195312 -3.785156 7.425781 -3.578125 7.625 -3.296875 C 7.832031 -3.023438 8.003906 -2.65625 8.140625 -2.1875 L 8.765625 0 L 7.3125 0 L 6.8125 -1.953125 C 6.707031 -2.367188 6.546875 -2.703125 6.328125 -2.953125 C 6.109375 -3.203125 5.847656 -3.382812 5.546875 -3.5 C 5.253906 -3.613281 4.925781 -3.671875 4.5625 -3.671875 L 2.5625 -3.671875 L 2.5625 0 Z M 2.5625 -4.765625 L 4.1875 -4.765625 C 4.375 -4.765625 4.59375 -4.769531 4.84375 -4.78125 C 5.101562 -4.800781 5.363281 -4.835938 5.625 -4.890625 C 5.894531 -4.941406 6.140625 -5.035156 6.359375 -5.171875 C 6.578125 -5.316406 6.753906 -5.507812 6.890625 -5.75 C 7.023438 -5.988281 7.09375 -6.289062 7.09375 -6.65625 C 7.09375 -7.039062 7.023438 -7.351562 6.890625 -7.59375 C 6.753906 -7.832031 6.578125 -8.015625 6.359375 -8.140625 C 6.148438 -8.273438 5.921875 -8.375 5.671875 -8.4375 C 5.429688 -8.5 5.203125 -8.535156 4.984375 -8.546875 C 4.765625 -8.554688 4.578125 -8.5625 4.421875 -8.5625 L 2.5625 -8.5625 Z M 2.5625 -4.765625"></path></g></g></g><g fill-opacity="1" fill="#ffffff"><g transform="translate(120.868958, 272.554141)"><g><path d="M 3.75 0 L 0.40625 -9.6875 L 1.875 -9.6875 L 4.65625 -1.1875 L 4.796875 -1.1875 L 7.59375 -9.6875 L 9.03125 -9.6875 L 5.65625 0 Z M 3.75 0"></path></g></g></g><g fill-opacity="1" fill="#ffffff"><g transform="translate(133.253811, 272.554141)"><g><path d="M 1.21875 0 L 1.21875 -9.6875 L 2.578125 -9.6875 L 2.578125 0 Z M 1.21875 0"></path></g></g></g><g fill-opacity="1" fill="#ffffff"><g transform="translate(139.989997, 272.554141)"><g><path d="M 5.328125 0.1875 C 4.617188 0.1875 3.988281 0.078125 3.4375 -0.140625 C 2.894531 -0.359375 2.429688 -0.675781 2.046875 -1.09375 C 1.671875 -1.519531 1.378906 -2.035156 1.171875 -2.640625 C 0.972656 -3.253906 0.875 -3.945312 0.875 -4.71875 C 0.875 -5.507812 0.976562 -6.222656 1.1875 -6.859375 C 1.394531 -7.492188 1.6875 -8.035156 2.0625 -8.484375 C 2.445312 -8.929688 2.90625 -9.273438 3.4375 -9.515625 C 3.96875 -9.753906 4.566406 -9.875 5.234375 -9.875 C 5.753906 -9.875 6.226562 -9.800781 6.65625 -9.65625 C 7.09375 -9.507812 7.46875 -9.300781 7.78125 -9.03125 C 8.101562 -8.757812 8.347656 -8.429688 8.515625 -8.046875 C 8.691406 -7.671875 8.78125 -7.242188 8.78125 -6.765625 L 7.53125 -6.4375 C 7.539062 -6.945312 7.4375 -7.363281 7.21875 -7.6875 C 7 -8.019531 6.710938 -8.269531 6.359375 -8.4375 C 6.015625 -8.613281 5.628906 -8.703125 5.203125 -8.703125 C 4.828125 -8.703125 4.457031 -8.625 4.09375 -8.46875 C 3.738281 -8.320312 3.425781 -8.085938 3.15625 -7.765625 C 2.882812 -7.453125 2.671875 -7.046875 2.515625 -6.546875 C 2.359375 -6.054688 2.28125 -5.460938 2.28125 -4.765625 C 2.28125 -3.890625 2.40625 -3.175781 2.65625 -2.625 C 2.90625 -2.070312 3.265625 -1.664062 3.734375 -1.40625 C 4.210938 -1.144531 4.757812 -1.015625 5.375 -1.015625 C 5.96875 -1.015625 6.441406 -1.125 6.796875 -1.34375 C 7.160156 -1.5625 7.429688 -1.867188 7.609375 -2.265625 C 7.796875 -2.671875 7.898438 -3.144531 7.921875 -3.6875 L 9.140625 -3.46875 C 9.128906 -2.957031 9.050781 -2.476562 8.90625 -2.03125 C 8.757812 -1.59375 8.53125 -1.207031 8.21875 -0.875 C 7.914062 -0.539062 7.523438 -0.28125 7.046875 -0.09375 C 6.566406 0.09375 5.992188 0.1875 5.328125 0.1875 Z M 5.328125 0.1875"></path></g></g></g><g fill-opacity="1" fill="#ffffff"><g transform="translate(152.638945, 272.554141)"><g><path d="M 1.21875 0 L 1.21875 -9.6875 L 2.5625 -9.6875 L 2.5625 0 Z M 1.90625 0 L 1.90625 -1.15625 L 8 -1.15625 L 8 0 Z M 1.90625 -4.40625 L 1.90625 -5.484375 L 7.3125 -5.484375 L 7.3125 -4.40625 Z M 1.90625 -8.53125 L 1.90625 -9.6875 L 7.984375 -9.6875 L 7.984375 -8.53125 Z M 1.90625 -8.53125"></path></g></g></g><g fill-opacity="1" fill="#ffffff"><g transform="translate(164.128813, 272.554141)"><g></g></g></g><g fill-opacity="1" fill="#ffffff"><g transform="translate(170.732957, 272.554141)"><g><path d="M 3.75 0 L 0.40625 -9.6875 L 1.875 -9.6875 L 4.65625 -1.1875 L 4.796875 -1.1875 L 7.59375 -9.6875 L 9.03125 -9.6875 L 5.65625 0 Z M 3.75 0"></path></g></g></g><g fill-opacity="1" fill="#ffffff"><g transform="translate(183.117804, 272.554141)"><g><path d="M 1.21875 0 L 1.21875 -9.6875 L 2.5625 -9.6875 L 2.5625 0 Z M 1.90625 0 L 1.90625 -1.15625 L 8 -1.15625 L 8 0 Z M 1.90625 -4.40625 L 1.90625 -5.484375 L 7.3125 -5.484375 L 7.3125 -4.40625 Z M 1.90625 -8.53125 L 1.90625 -9.6875 L 7.984375 -9.6875 L 7.984375 -8.53125 Z M 1.90625 -8.53125"></path></g></g></g><g fill-opacity="1" fill="#ffffff"><g transform="translate(194.607671, 272.554141)"><g><path d="M 1.21875 0 L 1.21875 -9.6875 L 3.015625 -9.6875 L 8.09375 -1.765625 L 8.203125 -1.765625 L 8.109375 -9.6875 L 9.4375 -9.6875 L 9.4375 0 L 7.78125 0 L 2.5625 -8.09375 L 2.453125 -8.09375 L 2.53125 0 Z M 1.21875 0"></path></g></g></g><g fill-opacity="1" fill="#ffffff"><g transform="translate(208.195618, 272.554141)"><g><path d="M 3.28125 0 L 3.28125 -9.6875 L 4.640625 -9.6875 L 4.640625 0 Z M 0.359375 -8.515625 L 0.359375 -9.6875 L 7.578125 -9.6875 L 7.578125 -8.515625 Z M 0.359375 -8.515625"></path></g></g></g><g fill-opacity="1" fill="#ffffff"><g transform="translate(219.054596, 272.554141)"><g><path d="M 1.21875 0 L 1.21875 -9.6875 L 2.578125 -9.6875 L 2.578125 0 Z M 1.21875 0"></path></g></g></g><g fill-opacity="1" fill="#ffffff"><g transform="translate(225.790783, 272.554141)"><g><path d="M 1.21875 0 L 1.21875 -9.6875 L 2.5625 -9.6875 L 2.5625 0 Z M 1.65625 0 L 1.65625 -1.171875 L 7.078125 -1.171875 L 7.078125 0 Z M 1.65625 0"></path></g></g></g><g fill-opacity="1" fill="#ffffff"><g transform="translate(236.092238, 272.554141)"><g><path d="M 0.40625 0 L 3.8125 -9.6875 L 5.765625 -9.6875 L 9.171875 0 L 7.734375 0 L 4.890625 -8.546875 L 4.703125 -8.546875 L 1.859375 0 Z M 2.03125 -2.171875 L 2.03125 -3.203125 L 7.734375 -3.203125 L 7.734375 -2.171875 Z M 2.03125 -2.171875"></path></g></g></g><g fill-opacity="1" fill="#ffffff"><g transform="translate(248.609144, 272.554141)"><g><path d="M 3.28125 0 L 3.28125 -9.6875 L 4.640625 -9.6875 L 4.640625 0 Z M 0.359375 -8.515625 L 0.359375 -9.6875 L 7.578125 -9.6875 L 7.578125 -8.515625 Z M 0.359375 -8.515625"></path></g></g></g><g fill-opacity="1" fill="#ffffff"><g transform="translate(259.468122, 272.554141)"><g><path d="M 1.21875 0 L 1.21875 -9.6875 L 2.578125 -9.6875 L 2.578125 0 Z M 1.21875 0"></path></g></g></g><g fill-opacity="1" fill="#ffffff"><g transform="translate(266.204308, 272.554141)"><g><path d="M 5.1875 0.1875 C 4.488281 0.1875 3.867188 0.0703125 3.328125 -0.15625 C 2.796875 -0.394531 2.347656 -0.734375 1.984375 -1.171875 C 1.617188 -1.609375 1.34375 -2.132812 1.15625 -2.75 C 0.96875 -3.363281 0.875 -4.046875 0.875 -4.796875 C 0.875 -5.921875 1.0625 -6.859375 1.4375 -7.609375 C 1.8125 -8.359375 2.320312 -8.921875 2.96875 -9.296875 C 3.625 -9.679688 4.367188 -9.875 5.203125 -9.875 C 5.859375 -9.875 6.453125 -9.757812 6.984375 -9.53125 C 7.515625 -9.3125 7.960938 -8.984375 8.328125 -8.546875 C 8.703125 -8.109375 8.988281 -7.570312 9.1875 -6.9375 C 9.394531 -6.3125 9.5 -5.597656 9.5 -4.796875 C 9.5 -4.035156 9.40625 -3.347656 9.21875 -2.734375 C 9.039062 -2.117188 8.765625 -1.59375 8.390625 -1.15625 C 8.023438 -0.726562 7.570312 -0.394531 7.03125 -0.15625 C 6.5 0.0703125 5.882812 0.1875 5.1875 0.1875 Z M 5.1875 -0.96875 C 5.5 -0.96875 5.820312 -1.019531 6.15625 -1.125 C 6.5 -1.238281 6.820312 -1.425781 7.125 -1.6875 C 7.425781 -1.957031 7.664062 -2.34375 7.84375 -2.84375 C 8.03125 -3.34375 8.125 -3.984375 8.125 -4.765625 C 8.125 -5.691406 7.988281 -6.441406 7.71875 -7.015625 C 7.457031 -7.585938 7.101562 -8.007812 6.65625 -8.28125 C 6.21875 -8.550781 5.734375 -8.6875 5.203125 -8.6875 C 4.921875 -8.6875 4.609375 -8.632812 4.265625 -8.53125 C 3.921875 -8.425781 3.597656 -8.238281 3.296875 -7.96875 C 2.992188 -7.695312 2.742188 -7.304688 2.546875 -6.796875 C 2.359375 -6.285156 2.265625 -5.617188 2.265625 -4.796875 C 2.265625 -4.046875 2.347656 -3.421875 2.515625 -2.921875 C 2.679688 -2.429688 2.910156 -2.039062 3.203125 -1.75 C 3.492188 -1.46875 3.8125 -1.265625 4.15625 -1.140625 C 4.5 -1.023438 4.84375 -0.96875 5.1875 -0.96875 Z M 5.1875 -0.96875"></path></g></g></g><g fill-opacity="1" fill="#ffffff"><g transform="translate(279.528148, 272.554141)"><g><path d="M 1.21875 0 L 1.21875 -9.6875 L 3.015625 -9.6875 L 8.09375 -1.765625 L 8.203125 -1.765625 L 8.109375 -9.6875 L 9.4375 -9.6875 L 9.4375 0 L 7.78125 0 L 2.5625 -8.09375 L 2.453125 -8.09375 L 2.53125 0 Z M 1.21875 0"></path></g></g></g><g clip-path="url(#f97d144fb4)"><path fill-rule="evenodd" fill-opacity="1" d="M 217.214844 161.589844 C 229.046875 166.617188 242.753906 162.003906 249.152344 150.808594 C 240.425781 158.210938 228.316406 160.175781 217.71875 155.96875 C 205.289062 151.816406 191.582031 154.875 182.078125 163.921875 C 193.183594 159.214844 205.5625 158.4375 217.214844 161.589844 Z M 217.214844 161.589844" fill="#277aea"></path></g><path fill-rule="evenodd" fill-opacity="1" d="M 216.164062 172.007812 C 227.996094 177.035156 241.75 172.417969 248.144531 161.226562 C 239.417969 168.628906 227.3125 170.589844 216.667969 166.386719 C 204.238281 162.230469 190.53125 165.292969 181.027344 174.335938 C 192.175781 169.632812 204.558594 168.855469 216.164062 172.007812 Z M 216.164062 172.007812" fill="#277aea"></path><g clip-path="url(#4b65361133)"><path fill-rule="evenodd" fill-opacity="1" d="M 215.160156 182.425781 C 226.992188 187.453125 240.746094 182.835938 247.140625 171.644531 C 238.371094 179.042969 226.304688 181.007812 215.664062 176.804688 C 203.234375 172.648438 189.527344 175.707031 180.023438 184.757812 C 191.171875 180.050781 203.507812 179.273438 215.160156 182.425781 Z M 215.160156 182.425781" fill="#277aea"></path></g></svg>